<svg xmlns="http://www.w3.org/2000/svg" xmlns:xlink="http://www.w3.org/1999/xlink" width="500" zoomAndPan="magnify" viewBox="0 0 375 374.999991" height="500" preserveAspectRatio="xMidYMid meet" version="1.2"><defs><clipPath id="d2674d6eb1"><path d="M 168.539062 21.691406 L 206 21.691406 L 206 65.941406 L 168.539062 65.941406 Z M 168.539062 21.691406 "/></clipPath><clipPath id="f1d85ae006"><path d="M 187.109375 65.941406 C 197.367188 65.941406 205.679688 57.628906 205.679688 47.371094 L 205.679688 40.230469 C 205.679688 29.972656 197.367188 21.660156 187.109375 21.660156 C 176.855469 21.660156 168.539062 29.972656 168.539062 40.230469 L 168.539062 47.371094 C 168.539062 57.628906 176.855469 65.941406 187.109375 65.941406 Z M 187.109375 65.941406 "/></clipPath><clipPath id="df0048c1d5"><path d="M 21.679688 166.3125 L 65.929688 166.3125 L 65.929688 203.8125 L 21.679688 203.8125 Z M 21.679688 166.3125 "/></clipPath><clipPath id="675a78b92d"><path d="M 65.929688 185.238281 C 65.929688 174.984375 57.617188 166.667969 47.359375 166.667969 L 40.21875 166.667969 C 29.960938 166.667969 21.648438 174.984375 21.648438 185.238281 C 21.648438 195.496094 29.960938 203.8125 40.21875 203.8125 L 47.359375 203.8125 C 57.617188 203.8125 65.929688 195.496094 65.929688 185.238281 Z M 65.929688 185.238281 "/></clipPath><clipPath id="c2e23f4955"><path d="M 309.0625 166.675781 L 353.3125 166.675781 L 353.3125 204 L 309.0625 204 Z M 309.0625 166.675781 "/></clipPath><clipPath id="3163edbbf3"><path d="M 309.0625 185.246094 C 309.0625 195.5 317.375 203.816406 327.632812 203.816406 L 334.773438 203.816406 C 345.03125 203.816406 353.34375 195.5 353.34375 185.246094 C 353.34375 174.988281 345.03125 166.675781 334.773438 166.675781 L 327.632812 166.675781 C 317.375 166.675781 309.0625 174.988281 309.0625 185.246094 Z M 309.0625 185.246094 "/></clipPath><clipPath id="c3e2555ee5"><path d="M 168.175781 309.054688 L 205.675781 309.054688 L 205.675781 353.304688 L 168.175781 353.304688 Z M 168.175781 309.054688 "/></clipPath><clipPath id="1fa07ba867"><path d="M 187.105469 309.054688 C 176.851562 309.054688 168.535156 317.367188 168.535156 327.625 L 168.535156 334.765625 C 168.535156 345.019531 176.851562 353.335938 187.105469 353.335938 C 197.363281 353.335938 205.675781 345.019531 205.675781 334.765625 L 205.675781 327.625 C 205.675781 317.367188 197.363281 309.054688 187.105469 309.054688 Z M 187.105469 309.054688 "/></clipPath><clipPath id="2983e15492"><path d="M 58.3125 58.539062 L 316.3125 58.539062 L 316.3125 316.539062 L 58.3125 316.539062 Z M 58.3125 58.539062 "/></clipPath><clipPath id="f810b81f20"><path d="M 100.476562 85.476562 L 273.726562 85.476562 L 273.726562 280.476562 L 100.476562 280.476562 Z M 100.476562 85.476562 "/></clipPath></defs><g id="71214f9785"><g clip-rule="nonzero" clip-path="url(#d2674d6eb1)"><g clip-rule="nonzero" clip-path="url(#f1d85ae006)"><path style=" stroke:none;fill-rule:nonzero;fill:#ff3131;fill-opacity:1;" d="M 184.988281 23.148438 L 168.886719 62.585938 C 168.707031 63.019531 168.667969 63.464844 168.769531 63.921875 C 168.867188 64.378906 169.085938 64.769531 169.425781 65.089844 C 169.765625 65.414062 170.164062 65.613281 170.628906 65.6875 C 171.089844 65.761719 171.53125 65.703125 171.957031 65.503906 L 185.375 59.203125 C 185.917969 58.949219 186.492188 58.820312 187.09375 58.820312 C 187.695312 58.820312 188.265625 58.949219 188.8125 59.203125 L 202.230469 65.503906 C 202.652344 65.703125 203.097656 65.765625 203.558594 65.6875 C 204.023438 65.613281 204.421875 65.414062 204.761719 65.09375 C 205.101562 64.769531 205.320312 64.378906 205.417969 63.921875 C 205.515625 63.464844 205.476562 63.015625 205.300781 62.585938 L 189.199219 23.148438 C 189.023438 22.722656 188.742188 22.378906 188.359375 22.121094 C 187.976562 21.863281 187.554688 21.734375 187.09375 21.734375 C 186.628906 21.734375 186.207031 21.863281 185.824219 22.121094 C 185.441406 22.378906 185.160156 22.722656 184.988281 23.148438 Z M 184.988281 23.148438 "/></g></g><g clip-rule="nonzero" clip-path="url(#df0048c1d5)"><g clip-rule="nonzero" clip-path="url(#675a78b92d)"><path style=" stroke:none;fill-rule:nonzero;fill:#ff3131;fill-opacity:1;" d="M 23.136719 187.363281 L 62.570312 203.464844 C 63.007812 203.644531 63.453125 203.683594 63.910156 203.582031 C 64.367188 203.484375 64.757812 203.265625 65.078125 202.925781 C 65.402344 202.585938 65.601562 202.1875 65.675781 201.722656 C 65.75 201.261719 65.691406 200.820312 65.492188 200.394531 L 59.191406 186.976562 C 58.9375 186.433594 58.808594 185.859375 58.808594 185.257812 C 58.808594 184.65625 58.9375 184.082031 59.191406 183.539062 L 65.492188 170.121094 C 65.691406 169.695312 65.753906 169.253906 65.675781 168.792969 C 65.601562 168.328125 65.402344 167.929688 65.082031 167.589844 C 64.757812 167.25 64.367188 167.03125 63.910156 166.933594 C 63.453125 166.835938 63.003906 166.875 62.570312 167.050781 L 23.136719 183.152344 C 22.710938 183.328125 22.367188 183.605469 22.109375 183.992188 C 21.851562 184.375 21.722656 184.796875 21.722656 185.257812 C 21.722656 185.722656 21.851562 186.144531 22.109375 186.527344 C 22.367188 186.910156 22.710938 187.191406 23.136719 187.363281 Z M 23.136719 187.363281 "/></g></g><g clip-rule="nonzero" clip-path="url(#c2e23f4955)"><g clip-rule="nonzero" clip-path="url(#3163edbbf3)"><path style=" stroke:none;fill-rule:nonzero;fill:#ff3131;fill-opacity:1;" d="M 351.855469 183.121094 L 312.417969 167.019531 C 311.984375 166.84375 311.539062 166.804688 311.082031 166.902344 C 310.625 167 310.234375 167.21875 309.914062 167.558594 C 309.589844 167.898438 309.390625 168.296875 309.316406 168.761719 C 309.242188 169.222656 309.300781 169.667969 309.5 170.089844 L 315.800781 183.507812 C 316.054688 184.054688 316.183594 184.625 316.183594 185.226562 C 316.183594 185.828125 316.054688 186.402344 315.800781 186.945312 L 309.5 200.363281 C 309.300781 200.789062 309.238281 201.230469 309.316406 201.691406 C 309.390625 202.15625 309.589844 202.554688 309.910156 202.894531 C 310.234375 203.234375 310.625 203.453125 311.082031 203.550781 C 311.539062 203.648438 311.988281 203.609375 312.417969 203.433594 L 351.855469 187.332031 C 352.28125 187.15625 352.625 186.878906 352.882812 186.496094 C 353.140625 186.109375 353.269531 185.6875 353.269531 185.226562 C 353.269531 184.765625 353.140625 184.339844 352.882812 183.957031 C 352.625 183.574219 352.28125 183.296875 351.855469 183.121094 Z M 351.855469 183.121094 "/></g></g><g clip-rule="nonzero" clip-path="url(#c3e2555ee5)"><g clip-rule="nonzero" clip-path="url(#1fa07ba867)"><path style=" stroke:none;fill-rule:nonzero;fill:#ff3131;fill-opacity:1;" d="M 189.230469 351.847656 L 205.332031 312.410156 C 205.507812 311.976562 205.546875 311.53125 205.449219 311.074219 C 205.351562 310.617188 205.132812 310.226562 204.792969 309.902344 C 204.453125 309.582031 204.050781 309.382812 203.589844 309.308594 C 203.128906 309.230469 202.683594 309.292969 202.261719 309.492188 L 188.84375 315.792969 C 188.296875 316.046875 187.726562 316.175781 187.125 316.175781 C 186.523438 316.175781 185.949219 316.046875 185.40625 315.792969 L 171.988281 309.492188 C 171.5625 309.292969 171.121094 309.230469 170.65625 309.304688 C 170.195312 309.382812 169.792969 309.582031 169.457031 309.902344 C 169.117188 310.226562 168.898438 310.617188 168.800781 311.074219 C 168.699219 311.53125 168.742188 311.976562 168.917969 312.410156 L 185.019531 351.847656 C 185.195312 352.273438 185.472656 352.617188 185.855469 352.875 C 186.242188 353.132812 186.664062 353.261719 187.125 353.261719 C 187.585938 353.261719 188.011719 353.132812 188.394531 352.875 C 188.777344 352.617188 189.054688 352.273438 189.230469 351.847656 Z M 189.230469 351.847656 "/></g></g><path style=" stroke:none;fill-rule:nonzero;fill:#ff3131;fill-opacity:1;" d="M 305.53125 187.484375 C 305.53125 189.417969 305.484375 191.355469 305.386719 193.289062 C 305.292969 195.222656 305.152344 197.152344 304.960938 199.078125 C 304.773438 201.003906 304.535156 202.921875 304.25 204.839844 C 303.964844 206.753906 303.636719 208.660156 303.257812 210.558594 C 302.878906 212.457031 302.457031 214.34375 301.988281 216.222656 C 301.515625 218.101562 301 219.964844 300.4375 221.816406 C 299.875 223.667969 299.269531 225.507812 298.617188 227.328125 C 297.964844 229.152344 297.269531 230.957031 296.527344 232.746094 C 295.789062 234.535156 295.003906 236.300781 294.175781 238.050781 C 293.347656 239.800781 292.476562 241.53125 291.566406 243.238281 C 290.652344 244.945312 289.699219 246.628906 288.703125 248.289062 C 287.707031 249.949219 286.671875 251.582031 285.597656 253.191406 C 284.523438 254.800781 283.410156 256.382812 282.253906 257.9375 C 281.101562 259.492188 279.914062 261.019531 278.683594 262.515625 C 277.457031 264.011719 276.191406 265.476562 274.890625 266.910156 C 273.59375 268.34375 272.257812 269.746094 270.890625 271.117188 C 269.519531 272.484375 268.121094 273.816406 266.683594 275.117188 C 265.25 276.417969 263.785156 277.683594 262.289062 278.910156 C 260.792969 280.136719 259.269531 281.328125 257.714844 282.480469 C 256.160156 283.632812 254.578125 284.75 252.96875 285.824219 C 251.359375 286.898438 249.722656 287.933594 248.0625 288.929688 C 246.402344 289.925781 244.71875 290.878906 243.011719 291.792969 C 241.304688 292.703125 239.578125 293.574219 237.828125 294.402344 C 236.078125 295.230469 234.308594 296.011719 232.519531 296.753906 C 230.730469 297.496094 228.925781 298.191406 227.101562 298.84375 C 225.28125 299.496094 223.445312 300.101562 221.589844 300.664062 C 219.738281 301.226562 217.875 301.742188 215.996094 302.210938 C 214.117188 302.683594 212.230469 303.105469 210.332031 303.484375 C 208.433594 303.863281 206.527344 304.191406 204.613281 304.476562 C 202.699219 304.761719 200.777344 304.996094 198.851562 305.1875 C 196.925781 305.375 194.996094 305.519531 193.0625 305.613281 C 191.128906 305.710938 189.195312 305.757812 187.257812 305.757812 C 185.324219 305.757812 183.386719 305.710938 181.457031 305.613281 C 179.523438 305.519531 177.59375 305.375 175.664062 305.1875 C 173.738281 304.996094 171.820312 304.761719 169.90625 304.476562 C 167.988281 304.191406 166.082031 303.863281 164.183594 303.484375 C 162.285156 303.105469 160.398438 302.683594 158.519531 302.210938 C 156.644531 301.742188 154.777344 301.226562 152.925781 300.664062 C 151.074219 300.101562 149.234375 299.496094 147.414062 298.84375 C 145.589844 298.191406 143.785156 297.496094 141.996094 296.753906 C 140.210938 296.011719 138.441406 295.230469 136.691406 294.402344 C 134.941406 293.574219 133.210938 292.703125 131.503906 291.792969 C 129.796875 290.878906 128.113281 289.925781 126.453125 288.929688 C 124.792969 287.933594 123.160156 286.898438 121.550781 285.824219 C 119.941406 284.75 118.359375 283.632812 116.804688 282.480469 C 115.25 281.328125 113.722656 280.136719 112.226562 278.910156 C 110.730469 277.683594 109.265625 276.417969 107.832031 275.117188 C 106.398438 273.816406 104.996094 272.484375 103.628906 271.117188 C 102.257812 269.746094 100.925781 268.34375 99.625 266.910156 C 98.324219 265.476562 97.0625 264.011719 95.832031 262.515625 C 94.605469 261.019531 93.414062 259.492188 92.261719 257.9375 C 91.109375 256.382812 89.992188 254.800781 88.917969 253.191406 C 87.84375 251.582031 86.808594 249.949219 85.8125 248.289062 C 84.816406 246.628906 83.863281 244.945312 82.953125 243.238281 C 82.039062 241.53125 81.167969 239.800781 80.339844 238.050781 C 79.515625 236.300781 78.730469 234.535156 77.988281 232.746094 C 77.25 230.957031 76.550781 229.152344 75.898438 227.328125 C 75.246094 225.507812 74.640625 223.667969 74.078125 221.816406 C 73.515625 219.964844 73 218.101562 72.53125 216.222656 C 72.058594 214.34375 71.636719 212.457031 71.257812 210.558594 C 70.882812 208.660156 70.550781 206.753906 70.265625 204.839844 C 69.980469 202.921875 69.746094 201.003906 69.554688 199.078125 C 69.367188 197.152344 69.222656 195.222656 69.128906 193.289062 C 69.035156 191.355469 68.984375 189.417969 68.984375 187.484375 C 68.984375 185.546875 69.035156 183.613281 69.128906 181.679688 C 69.222656 179.746094 69.367188 177.816406 69.554688 175.890625 C 69.746094 173.964844 69.980469 172.042969 70.265625 170.128906 C 70.550781 168.214844 70.882812 166.308594 71.257812 164.410156 C 71.636719 162.511719 72.058594 160.625 72.53125 158.746094 C 73 156.867188 73.515625 155.003906 74.078125 153.152344 C 74.640625 151.300781 75.246094 149.460938 75.898438 147.640625 C 76.550781 145.816406 77.25 144.011719 77.988281 142.222656 C 78.730469 140.433594 79.515625 138.667969 80.339844 136.917969 C 81.167969 135.167969 82.039062 133.4375 82.953125 131.730469 C 83.863281 130.023438 84.816406 128.339844 85.8125 126.679688 C 86.808594 125.019531 87.84375 123.386719 88.917969 121.777344 C 89.992188 120.167969 91.109375 118.585938 92.261719 117.03125 C 93.414062 115.476562 94.605469 113.949219 95.832031 112.453125 C 97.0625 110.957031 98.324219 109.492188 99.625 108.058594 C 100.925781 106.625 102.257812 105.222656 103.628906 103.851562 C 104.996094 102.484375 106.398438 101.148438 107.832031 99.851562 C 109.265625 98.550781 110.730469 97.285156 112.226562 96.058594 C 113.722656 94.832031 115.25 93.640625 116.804688 92.488281 C 118.359375 91.335938 119.941406 90.21875 121.550781 89.144531 C 123.160156 88.070312 124.792969 87.035156 126.453125 86.039062 C 128.113281 85.042969 129.796875 84.089844 131.503906 83.175781 C 133.210938 82.265625 134.941406 81.394531 136.691406 80.566406 C 138.441406 79.738281 140.210938 78.957031 141.996094 78.214844 C 143.785156 77.472656 145.589844 76.777344 147.414062 76.125 C 149.234375 75.472656 151.074219 74.867188 152.925781 74.304688 C 154.777344 73.742188 156.644531 73.226562 158.519531 72.757812 C 160.398438 72.285156 162.285156 71.863281 164.183594 71.484375 C 166.082031 71.105469 167.988281 70.777344 169.90625 70.492188 C 171.820312 70.207031 173.738281 69.972656 175.664062 69.78125 C 177.59375 69.589844 179.523438 69.449219 181.457031 69.355469 C 183.386719 69.257812 185.324219 69.210938 187.257812 69.210938 C 189.195312 69.210938 191.128906 69.257812 193.0625 69.355469 C 194.996094 69.449219 196.925781 69.589844 198.851562 69.78125 C 200.777344 69.972656 202.699219 70.207031 204.613281 70.492188 C 206.527344 70.777344 208.433594 71.105469 210.332031 71.484375 C 212.230469 71.863281 214.117188 72.285156 215.996094 72.757812 C 217.875 73.226562 219.738281 73.742188 221.589844 74.304688 C 223.445312 74.867188 225.28125 75.472656 227.101562 76.125 C 228.925781 76.777344 230.730469 77.472656 232.519531 78.214844 C 234.308594 78.957031 236.078125 79.738281 237.828125 80.566406 C 239.578125 81.394531 241.304688 82.265625 243.011719 83.175781 C 244.71875 84.089844 246.402344 85.042969 248.0625 86.039062 C 249.722656 87.035156 251.359375 88.070312 252.96875 89.144531 C 254.578125 90.21875 256.160156 91.335938 257.714844 92.488281 C 259.269531 93.640625 260.792969 94.832031 262.289062 96.058594 C 263.785156 97.285156 265.25 98.550781 266.683594 99.851562 C 268.121094 101.148438 269.519531 102.484375 270.890625 103.851562 C 272.257812 105.222656 273.59375 106.625 274.890625 108.058594 C 276.191406 109.492188 277.457031 110.957031 278.683594 112.453125 C 279.914062 113.949219 281.101562 115.476562 282.253906 117.03125 C 283.410156 118.585938 284.523438 120.167969 285.597656 121.777344 C 286.671875 123.386719 287.707031 125.019531 288.703125 126.679688 C 289.699219 128.339844 290.652344 130.023438 291.566406 131.730469 C 292.476562 133.4375 293.347656 135.167969 294.175781 136.917969 C 295.003906 138.667969 295.789062 140.433594 296.527344 142.222656 C 297.269531 144.011719 297.964844 145.816406 298.617188 147.640625 C 299.269531 149.460938 299.875 151.300781 300.4375 153.152344 C 301 155.003906 301.515625 156.867188 301.988281 158.746094 C 302.457031 160.625 302.878906 162.511719 303.257812 164.410156 C 303.636719 166.308594 303.964844 168.214844 304.25 170.128906 C 304.535156 172.042969 304.773438 173.964844 304.960938 175.890625 C 305.152344 177.816406 305.292969 179.746094 305.386719 181.679688 C 305.484375 183.613281 305.53125 185.546875 305.53125 187.484375 Z M 305.53125 187.484375 "/><g clip-rule="nonzero" clip-path="url(#2983e15492)"><path style=" stroke:none;fill-rule:nonzero;fill:#ff3131;fill-opacity:1;" d="M 187.257812 316.429688 C 185.148438 316.429688 183.039062 316.378906 180.929688 316.273438 C 178.824219 316.171875 176.71875 316.015625 174.621094 315.808594 C 172.519531 315.601562 170.425781 315.34375 168.339844 315.035156 C 166.25 314.722656 164.171875 314.363281 162.101562 313.953125 C 160.03125 313.539062 157.972656 313.078125 155.925781 312.566406 C 153.878906 312.050781 151.847656 311.488281 149.828125 310.875 C 147.808594 310.265625 145.804688 309.601562 143.820312 308.890625 C 141.832031 308.179688 139.863281 307.421875 137.914062 306.613281 C 135.964844 305.804688 134.035156 304.949219 132.128906 304.050781 C 130.21875 303.148438 128.335938 302.199219 126.472656 301.203125 C 124.613281 300.207031 122.777344 299.167969 120.96875 298.082031 C 119.15625 297 117.375 295.871094 115.621094 294.699219 C 113.867188 293.527344 112.140625 292.3125 110.445312 291.054688 C 108.75 289.796875 107.089844 288.5 105.457031 287.160156 C 103.824219 285.820312 102.226562 284.441406 100.664062 283.027344 C 99.101562 281.609375 97.574219 280.152344 96.082031 278.660156 C 94.589844 277.167969 93.132812 275.640625 91.71875 274.078125 C 90.300781 272.515625 88.921875 270.917969 87.582031 269.285156 C 86.246094 267.65625 84.945312 265.992188 83.6875 264.296875 C 82.433594 262.601562 81.21875 260.875 80.046875 259.121094 C 78.871094 257.367188 77.742188 255.585938 76.660156 253.773438 C 75.574219 251.964844 74.535156 250.128906 73.539062 248.269531 C 72.542969 246.40625 71.597656 244.523438 70.695312 242.613281 C 69.792969 240.707031 68.9375 238.777344 68.128906 236.828125 C 67.320312 234.878906 66.5625 232.910156 65.851562 230.925781 C 65.140625 228.9375 64.480469 226.933594 63.867188 224.914062 C 63.253906 222.894531 62.691406 220.863281 62.179688 218.816406 C 61.664062 216.769531 61.203125 214.710938 60.792969 212.640625 C 60.378906 210.570312 60.019531 208.492188 59.710938 206.40625 C 59.398438 204.316406 59.140625 202.222656 58.933594 200.125 C 58.726562 198.023438 58.574219 195.917969 58.46875 193.8125 C 58.367188 191.703125 58.3125 189.59375 58.3125 187.484375 C 58.3125 185.375 58.367188 183.265625 58.46875 181.15625 C 58.574219 179.050781 58.726562 176.945312 58.933594 174.84375 C 59.140625 172.746094 59.398438 170.652344 59.710938 168.5625 C 60.019531 166.476562 60.378906 164.398438 60.792969 162.328125 C 61.203125 160.257812 61.664062 158.199219 62.179688 156.152344 C 62.691406 154.105469 63.253906 152.074219 63.867188 150.054688 C 64.480469 148.035156 65.140625 146.03125 65.851562 144.042969 C 66.5625 142.058594 67.320312 140.089844 68.128906 138.140625 C 68.9375 136.191406 69.792969 134.261719 70.695312 132.351562 C 71.597656 130.445312 72.542969 128.5625 73.539062 126.699219 C 74.535156 124.839844 75.574219 123.003906 76.660156 121.195312 C 77.742188 119.382812 78.871094 117.601562 80.046875 115.847656 C 81.21875 114.089844 82.433594 112.367188 83.6875 110.671875 C 84.945312 108.976562 86.246094 107.3125 87.582031 105.683594 C 88.921875 104.050781 90.300781 102.453125 91.71875 100.890625 C 93.132812 99.328125 94.589844 97.796875 96.082031 96.304688 C 97.574219 94.8125 99.101562 93.359375 100.664062 91.941406 C 102.226562 90.523438 103.824219 89.148438 105.457031 87.808594 C 107.089844 86.46875 108.75 85.171875 110.445312 83.914062 C 112.140625 82.65625 113.867188 81.441406 115.621094 80.269531 C 117.375 79.097656 119.15625 77.96875 120.96875 76.882812 C 122.777344 75.800781 124.613281 74.761719 126.472656 73.765625 C 128.335938 72.769531 130.21875 71.820312 132.128906 70.917969 C 134.035156 70.015625 135.964844 69.164062 137.914062 68.355469 C 139.863281 67.546875 141.832031 66.789062 143.820312 66.078125 C 145.804688 65.367188 147.808594 64.703125 149.828125 64.09375 C 151.847656 63.480469 153.878906 62.917969 155.925781 62.402344 C 157.972656 61.890625 160.03125 61.429688 162.101562 61.015625 C 164.171875 60.605469 166.25 60.246094 168.339844 59.933594 C 170.425781 59.625 172.519531 59.367188 174.621094 59.160156 C 176.71875 58.953125 178.824219 58.796875 180.929688 58.695312 C 183.039062 58.589844 185.148438 58.539062 187.257812 58.539062 C 189.367188 58.539062 191.476562 58.589844 193.585938 58.695312 C 195.691406 58.796875 197.796875 58.953125 199.898438 59.160156 C 201.996094 59.367188 204.089844 59.625 206.179688 59.933594 C 208.265625 60.246094 210.34375 60.605469 212.414062 61.015625 C 214.484375 61.429688 216.542969 61.890625 218.589844 62.402344 C 220.636719 62.917969 222.667969 63.480469 224.6875 64.09375 C 226.707031 64.703125 228.710938 65.367188 230.699219 66.078125 C 232.6875 66.789062 234.652344 67.546875 236.605469 68.355469 C 238.554688 69.164062 240.480469 70.015625 242.390625 70.917969 C 244.296875 71.820312 246.179688 72.769531 248.042969 73.765625 C 249.902344 74.761719 251.738281 75.800781 253.550781 76.882812 C 255.359375 77.96875 257.140625 79.097656 258.894531 80.269531 C 260.652344 81.441406 262.375 82.65625 264.070312 83.914062 C 265.765625 85.171875 267.429688 86.46875 269.058594 87.808594 C 270.691406 89.148438 272.289062 90.523438 273.851562 91.941406 C 275.417969 93.359375 276.945312 94.8125 278.4375 96.304688 C 279.929688 97.796875 281.382812 99.328125 282.800781 100.890625 C 284.21875 102.453125 285.59375 104.050781 286.933594 105.683594 C 288.273438 107.3125 289.570312 108.976562 290.828125 110.671875 C 292.085938 112.367188 293.300781 114.089844 294.472656 115.847656 C 295.644531 117.601562 296.773438 119.382812 297.859375 121.195312 C 298.941406 123.003906 299.984375 124.839844 300.976562 126.699219 C 301.972656 128.5625 302.921875 130.445312 303.824219 132.351562 C 304.726562 134.261719 305.582031 136.191406 306.386719 138.140625 C 307.195312 140.089844 307.953125 142.058594 308.664062 144.042969 C 309.375 146.03125 310.039062 148.035156 310.652344 150.054688 C 311.261719 152.074219 311.828125 154.105469 312.339844 156.152344 C 312.851562 158.199219 313.3125 160.257812 313.726562 162.328125 C 314.136719 164.398438 314.496094 166.476562 314.808594 168.5625 C 315.117188 170.652344 315.375 172.746094 315.582031 174.84375 C 315.789062 176.945312 315.945312 179.050781 316.046875 181.15625 C 316.152344 183.265625 316.203125 185.375 316.203125 187.484375 C 316.199219 189.59375 316.148438 191.703125 316.042969 193.808594 C 315.933594 195.917969 315.777344 198.019531 315.570312 200.117188 C 315.359375 202.21875 315.101562 204.3125 314.789062 206.398438 C 314.476562 208.484375 314.113281 210.5625 313.703125 212.628906 C 313.289062 214.699219 312.824219 216.757812 312.308594 218.800781 C 311.796875 220.847656 311.230469 222.878906 310.617188 224.898438 C 310.003906 226.917969 309.339844 228.917969 308.628906 230.90625 C 307.917969 232.890625 307.15625 234.859375 306.347656 236.804688 C 305.539062 238.753906 304.683594 240.683594 303.78125 242.589844 C 302.878906 244.496094 301.929688 246.378906 300.933594 248.238281 C 299.941406 250.101562 298.898438 251.933594 297.8125 253.742188 C 296.730469 255.550781 295.601562 257.332031 294.425781 259.085938 C 293.253906 260.839844 292.039062 262.566406 290.78125 264.257812 C 289.527344 265.953125 288.226562 267.617188 286.890625 269.246094 C 285.550781 270.878906 284.171875 272.472656 282.757812 274.039062 C 281.339844 275.601562 279.886719 277.128906 278.394531 278.621094 C 276.902344 280.109375 275.375 281.566406 273.8125 282.980469 C 272.25 284.398438 270.652344 285.777344 269.019531 287.117188 C 267.390625 288.453125 265.726562 289.75 264.035156 291.007812 C 262.339844 292.265625 260.617188 293.480469 258.863281 294.652344 C 257.109375 295.824219 255.328125 296.953125 253.519531 298.039062 C 251.707031 299.125 249.875 300.164062 248.015625 301.160156 C 246.152344 302.15625 244.269531 303.105469 242.363281 304.007812 C 240.457031 304.910156 238.53125 305.765625 236.582031 306.574219 C 234.632812 307.382812 232.664062 308.144531 230.679688 308.855469 C 228.695312 309.566406 226.691406 310.230469 224.671875 310.84375 C 222.65625 311.457031 220.621094 312.023438 218.578125 312.535156 C 216.53125 313.050781 214.472656 313.515625 212.40625 313.925781 C 210.335938 314.339844 208.257812 314.703125 206.171875 315.015625 C 204.085938 315.324219 201.992188 315.585938 199.894531 315.792969 C 197.792969 316.003906 195.691406 316.160156 193.582031 316.265625 C 191.476562 316.371094 189.367188 316.425781 187.257812 316.429688 Z M 187.257812 79.882812 C 185.496094 79.882812 183.738281 79.925781 181.980469 80.015625 C 180.21875 80.101562 178.464844 80.230469 176.710938 80.402344 C 174.960938 80.574219 173.210938 80.789062 171.46875 81.050781 C 169.726562 81.308594 167.992188 81.609375 166.265625 81.953125 C 164.539062 82.296875 162.820312 82.679688 161.113281 83.109375 C 159.40625 83.535156 157.710938 84.007812 156.023438 84.519531 C 154.339844 85.027344 152.667969 85.582031 151.007812 86.175781 C 149.351562 86.765625 147.707031 87.402344 146.082031 88.074219 C 144.453125 88.75 142.84375 89.460938 141.253906 90.214844 C 139.660156 90.96875 138.089844 91.757812 136.535156 92.589844 C 134.984375 93.417969 133.453125 94.289062 131.941406 95.191406 C 130.429688 96.097656 128.945312 97.039062 127.480469 98.019531 C 126.015625 98.996094 124.574219 100.011719 123.160156 101.058594 C 121.746094 102.109375 120.359375 103.191406 118.996094 104.308594 C 117.636719 105.425781 116.304688 106.574219 115 107.757812 C 113.695312 108.941406 112.417969 110.15625 111.175781 111.398438 C 109.929688 112.644531 108.714844 113.917969 107.53125 115.226562 C 106.351562 116.53125 105.199219 117.863281 104.082031 119.222656 C 102.964844 120.585938 101.882812 121.972656 100.832031 123.386719 C 99.785156 124.800781 98.769531 126.242188 97.792969 127.703125 C 96.8125 129.167969 95.871094 130.65625 94.96875 132.167969 C 94.0625 133.675781 93.195312 135.210938 92.363281 136.761719 C 91.535156 138.316406 90.742188 139.886719 89.988281 141.480469 C 89.238281 143.070312 88.523438 144.679688 87.847656 146.308594 C 87.175781 147.933594 86.542969 149.578125 85.949219 151.234375 C 85.355469 152.894531 84.804688 154.566406 84.292969 156.25 C 83.78125 157.933594 83.3125 159.632812 82.882812 161.339844 C 82.457031 163.046875 82.070312 164.765625 81.726562 166.492188 C 81.382812 168.21875 81.082031 169.953125 80.824219 171.695312 C 80.566406 173.4375 80.347656 175.183594 80.175781 176.9375 C 80.003906 178.691406 79.875 180.445312 79.789062 182.203125 C 79.703125 183.964844 79.660156 185.722656 79.660156 187.484375 C 79.660156 189.246094 79.703125 191.003906 79.789062 192.765625 C 79.875 194.523438 80.003906 196.277344 80.175781 198.03125 C 80.347656 199.785156 80.566406 201.53125 80.824219 203.273438 C 81.082031 205.015625 81.382812 206.75 81.726562 208.476562 C 82.070312 210.203125 82.457031 211.921875 82.882812 213.628906 C 83.3125 215.335938 83.78125 217.035156 84.292969 218.71875 C 84.804688 220.402344 85.355469 222.074219 85.949219 223.734375 C 86.542969 225.390625 87.175781 227.035156 87.847656 228.660156 C 88.523438 230.289062 89.238281 231.898438 89.988281 233.488281 C 90.742188 235.082031 91.535156 236.652344 92.363281 238.207031 C 93.195312 239.757812 94.0625 241.292969 94.96875 242.800781 C 95.871094 244.3125 96.8125 245.800781 97.792969 247.261719 C 98.769531 248.726562 99.785156 250.167969 100.832031 251.582031 C 101.882812 252.996094 102.964844 254.382812 104.082031 255.746094 C 105.199219 257.105469 106.351562 258.4375 107.53125 259.742188 C 108.714844 261.046875 109.929688 262.324219 111.175781 263.570312 C 112.417969 264.8125 113.695312 266.027344 115 267.210938 C 116.304688 268.394531 117.636719 269.542969 118.996094 270.660156 C 120.359375 271.777344 121.746094 272.859375 123.160156 273.910156 C 124.574219 274.957031 126.015625 275.972656 127.480469 276.949219 C 128.945312 277.929688 130.429688 278.871094 131.941406 279.777344 C 133.453125 280.679688 134.984375 281.546875 136.535156 282.378906 C 138.089844 283.207031 139.660156 284 141.253906 284.753906 C 142.84375 285.507812 144.453125 286.21875 146.082031 286.894531 C 147.707031 287.566406 149.351562 288.199219 151.007812 288.792969 C 152.667969 289.386719 154.339844 289.941406 156.023438 290.449219 C 157.710938 290.960938 159.40625 291.429688 161.113281 291.859375 C 162.820312 292.289062 164.539062 292.671875 166.265625 293.015625 C 167.992188 293.359375 169.726562 293.660156 171.46875 293.917969 C 173.210938 294.179688 174.960938 294.394531 176.710938 294.566406 C 178.464844 294.738281 180.21875 294.867188 181.980469 294.953125 C 183.738281 295.039062 185.496094 295.085938 187.257812 295.085938 C 189.019531 295.085938 190.78125 295.039062 192.539062 294.953125 C 194.296875 294.867188 196.050781 294.738281 197.804688 294.566406 C 199.558594 294.394531 201.304688 294.179688 203.046875 293.917969 C 204.789062 293.660156 206.523438 293.359375 208.25 293.015625 C 209.976562 292.671875 211.695312 292.289062 213.402344 291.859375 C 215.113281 291.429688 216.808594 290.960938 218.492188 290.449219 C 220.179688 289.941406 221.851562 289.386719 223.507812 288.792969 C 225.164062 288.199219 226.808594 287.566406 228.433594 286.894531 C 230.0625 286.21875 231.671875 285.507812 233.261719 284.753906 C 234.855469 284 236.425781 283.207031 237.980469 282.378906 C 239.535156 281.546875 241.066406 280.679688 242.574219 279.777344 C 244.085938 278.871094 245.574219 277.929688 247.039062 276.949219 C 248.503906 275.972656 249.941406 274.957031 251.355469 273.910156 C 252.769531 272.859375 254.15625 271.777344 255.519531 270.660156 C 256.878906 269.542969 258.214844 268.394531 259.519531 267.210938 C 260.824219 266.027344 262.097656 264.8125 263.34375 263.570312 C 264.589844 262.324219 265.800781 261.046875 266.984375 259.742188 C 268.167969 258.4375 269.316406 257.105469 270.433594 255.746094 C 271.550781 254.382812 272.632812 252.996094 273.683594 251.582031 C 274.734375 250.167969 275.746094 248.726562 276.722656 247.261719 C 277.703125 245.800781 278.644531 244.3125 279.550781 242.800781 C 280.457031 241.292969 281.324219 239.757812 282.152344 238.207031 C 282.984375 236.652344 283.773438 235.082031 284.527344 233.488281 C 285.28125 231.898438 285.992188 230.289062 286.667969 228.660156 C 287.339844 227.035156 287.976562 225.390625 288.570312 223.734375 C 289.160156 222.074219 289.714844 220.402344 290.226562 218.71875 C 290.738281 217.035156 291.207031 215.335938 291.632812 213.628906 C 292.0625 211.921875 292.449219 210.203125 292.789062 208.476562 C 293.132812 206.75 293.433594 205.015625 293.695312 203.273438 C 293.953125 201.53125 294.167969 199.785156 294.339844 198.03125 C 294.511719 196.277344 294.640625 194.523438 294.730469 192.765625 C 294.816406 191.003906 294.859375 189.246094 294.859375 187.484375 C 294.855469 185.722656 294.8125 183.964844 294.722656 182.207031 C 294.636719 180.449219 294.503906 178.691406 294.328125 176.941406 C 294.15625 175.191406 293.9375 173.441406 293.679688 171.703125 C 293.417969 169.960938 293.117188 168.226562 292.769531 166.5 C 292.425781 164.773438 292.039062 163.058594 291.609375 161.351562 C 291.179688 159.644531 290.710938 157.949219 290.199219 156.261719 C 289.6875 154.578125 289.132812 152.910156 288.539062 151.25 C 287.945312 149.59375 287.308594 147.953125 286.636719 146.328125 C 285.960938 144.699219 285.246094 143.09375 284.492188 141.5 C 283.738281 139.910156 282.949219 138.339844 282.117188 136.785156 C 281.285156 135.234375 280.417969 133.703125 279.511719 132.191406 C 278.609375 130.683594 277.664062 129.195312 276.6875 127.734375 C 275.710938 126.269531 274.695312 124.832031 273.644531 123.417969 C 272.597656 122.003906 271.515625 120.617188 270.398438 119.257812 C 269.28125 117.894531 268.128906 116.5625 266.949219 115.257812 C 265.765625 113.953125 264.550781 112.679688 263.308594 111.433594 C 262.0625 110.191406 260.789062 108.976562 259.484375 107.792969 C 258.179688 106.613281 256.847656 105.460938 255.488281 104.34375 C 254.125 103.226562 252.738281 102.144531 251.324219 101.097656 C 249.910156 100.046875 248.472656 99.035156 247.007812 98.054688 C 245.546875 97.078125 244.058594 96.136719 242.550781 95.230469 C 241.039062 94.324219 239.507812 93.457031 237.957031 92.625 C 236.40625 91.792969 234.832031 91.003906 233.242188 90.25 C 231.652344 89.496094 230.042969 88.78125 228.417969 88.105469 C 226.789062 87.433594 225.148438 86.796875 223.492188 86.203125 C 221.835938 85.609375 220.164062 85.058594 218.480469 84.542969 C 216.796875 84.03125 215.101562 83.5625 213.390625 83.132812 C 211.683594 82.703125 209.96875 82.316406 208.242188 81.972656 C 206.515625 81.628906 204.78125 81.324219 203.039062 81.066406 C 201.300781 80.804688 199.554688 80.585938 197.800781 80.414062 C 196.050781 80.238281 194.292969 80.109375 192.535156 80.019531 C 190.777344 79.929688 189.019531 79.886719 187.257812 79.882812 Z M 187.257812 79.882812 "/></g><g clip-rule="nonzero" clip-path="url(#f810b81f20)"><path style=" stroke:none;fill-rule:nonzero;fill:#000000;fill-opacity:1;" d="M 221.597656 185.894531 C 204.972656 148.40625 118.980469 166.652344 118.980469 117.996094 C 118.980469 101.242188 133.871094 87.460938 161.542969 87.460938 C 187.601562 87.460938 206.957031 110.175781 215.890625 126.066406 L 218.125 126.066406 L 213.78125 99.007812 C 204.847656 92.304688 185.863281 85.476562 159.679688 85.476562 C 129.902344 85.476562 107.691406 101.242188 107.691406 124.949219 C 107.691406 181.050781 199.511719 162.308594 214.03125 198.925781 L 190.703125 238.894531 C 182.882812 241.75 174.074219 243.238281 164.894531 243.238281 C 126.921875 243.238281 112.902344 223.253906 112.902344 208.609375 C 112.902344 200.914062 117.742188 196.320312 124.070312 196.320312 C 137.964844 196.320312 136.476562 213.820312 129.902344 215.558594 L 131.265625 216.429688 C 136.230469 216.429688 145.164062 212.332031 145.164062 201.78125 C 145.164062 190.238281 136.230469 181.550781 122.953125 181.550781 C 110.296875 181.550781 100.492188 191.601562 100.492188 204.636719 C 100.492188 226.234375 126.921875 245.226562 164.894531 245.226562 C 173.578125 245.226562 181.644531 243.984375 189.089844 241.625 L 167.5 278.492188 L 167.5 280.476562 L 269.371094 280.476562 L 273.714844 253.417969 L 271.605469 253.417969 C 258.949219 275.882812 236.488281 278.492188 211.796875 278.492188 L 184.496094 278.492188 L 217.875 221.515625 C 218.867188 220.027344 219.613281 218.664062 220.480469 217.050781 L 271.605469 129.664062 L 271.605469 127.679688 L 171.839844 127.679688 L 167.5 154.738281 L 169.609375 154.738281 C 182.265625 132.273438 204.847656 129.664062 229.414062 129.664062 L 254.480469 129.664062 Z M 221.597656 185.894531 "/></g></g></svg>